<?xml version="1.0" encoding="UTF-8"?>
<svg id="Layer_2" data-name="Layer 2" xmlns="http://www.w3.org/2000/svg" viewBox="0 0 245.12 50">
  <defs>
    <style>
      .cls-1 {
        fill: #fff;
      }
    </style>
  </defs>
  <g id="Layer_1-2" data-name="Layer 1">
    <g>
      <path class="cls-1" d="M18.07,33.85h.08l8.16-25.27h9.91v.96c-3.76,0-4.28.72-4.28,3.16v23.75c0,2.44.52,3.16,4.28,3.16v.96h-13.03v-.96c3.72,0,4.24-.72,4.24-3.16V10.9h-.12l-9.75,30.46h-1.8L6.04,11.3h-.12v25.14c0,2.44.56,3.16,4.28,3.16v.96H0v-.96c3.72,0,4.24-.72,4.24-3.16V12.7c0-2.44-.52-3.16-4.24-3.16v-.96h9.95l8.12,25.27Z"/>
      <path class="cls-1" d="M41.64,25.09c0,3.36,1.08,7.44,4,7.44,2.08,0,3-2,3-4.68,0-3.48-1.2-7.64-3.96-7.64-2.2,0-3.04,2.36-3.04,4.88M53.15,42.84c0-1.56-1.08-1.92-3.92-1.92h-4.96c-1.12,0-2.08-.08-2.88-.28-1.36,1.08-2.32,2.28-2.32,3.56,0,1.68,1.56,3.4,5.76,3.4,5.08,0,8.32-2.52,8.32-4.76M49.35,37.37c4.16,0,6.04,1.2,6.04,4.24,0,4.44-4.8,8.39-11.51,8.39-4.28,0-8-1.56-8-4.84,0-2.28,1.68-3.8,4.2-4.92-1.64-.64-2.36-1.76-2.36-3.12,0-1.84,1.28-3.16,3.08-4.28-1.96-1.32-3.08-3.6-3.08-6.36,0-4.48,2.88-7.8,7.48-7.8,1.52,0,2.84.36,3.96,1.04,1.6-.92,3.32-1.32,4.56-1.32,1.16,0,1.48.56,1.48,1.2,0,.76-.48,1.36-1.44,1.36-1.52,0-2.6-.8-3.76-.64,1.6,1.36,2.52,3.44,2.52,6.04,0,4.56-2.88,7.72-7.36,7.72-1.24,0-2.36-.24-3.32-.68-.8.64-1.32,1.28-1.32,2.08,0,1.04.32,1.88,4.2,1.88h4.64Z"/>
      <path class="cls-1" d="M66.66,33.21v-4.72c-3.24,1.68-6.52,3.6-6.52,6.92,0,1.68.76,2.76,2.16,2.76,1.6,0,3.32-1.48,4.36-4.96M74.02,36.05c-.12,3.04-1.08,5.16-3.72,5.16-2.28,0-3.64-1.52-3.64-5.24v-.72c-.92,3.76-3.04,5.96-5.92,5.96s-4.44-2.12-4.44-4.72c0-5.04,5.8-7.28,10.35-9.31v-2.32c0-3.44-1.12-4.64-3.08-4.64-1.56,0-2.68.8-2.68,2.12,0,.92.56,1.44.56,2.36,0,1.08-.68,1.84-1.96,1.84-1.44,0-2.2-1-2.2-2.48,0-2.96,2.88-5.44,6.92-5.44s6.28,2.2,6.28,6.52v11.79c0,1.96.4,2.44,1.04,2.44.84,0,1.48-.8,1.56-3.32h.92Z"/>
      <path class="cls-1" d="M81.41,36.45c0,2.56.36,3.16,2.8,3.16v.96h-9.51v-.96c2.44,0,2.84-.6,2.84-3.16V13.34c0-2.56,0-3.08-2.4-1.88l-.4-.88,6.08-2.96.6.56v28.26Z"/>
      <path class="cls-1" d="M124.55,37.25c.64,1,1.84,2.08,3.4,2.08,2.8,0,4.32-3.56,4.32-9.63,0-5.64-1.48-8.27-3.76-8.27-1.6,0-2.96,1.32-3.96,2.96v12.87ZM120.63,13.46c0-2.6.08-3.12-2.24-1.96l-.44-.84,3.08-1.52,2.96-1.52.56.56v14.23h.16c1.48-2.24,3.36-3.76,5.84-3.76,3.56,0,5.92,3.76,5.92,10.35,0,7.48-3,12.15-8.52,12.15-2.28,0-5.16-.8-7.32-2.68V13.46Z"/>
      <path class="cls-1" d="M144.54,36.45c0,2.56.36,3.16,2.8,3.16v.96h-9.51v-.96c2.44,0,2.84-.6,2.84-3.16V13.34c0-2.56,0-3.08-2.4-1.88l-.4-.88,6.08-2.96.6.56v28.26Z"/>
      <path class="cls-1" d="M150.93,12.3c0-1.44,1.08-2.48,2.6-2.48s2.56,1.04,2.56,2.48-1.08,2.44-2.56,2.44-2.6-1.04-2.6-2.44M155.77,36.45c0,2.56.4,3.16,2.84,3.16v.96h-9.51v-.96c2.44,0,2.84-.6,2.84-3.16v-12.31c0-2.68-.04-3.24-2.36-2.28l-.36-.92,5.88-2.36.68.6v17.27Z"/>
      <path class="cls-1" d="M163.01,39.77c-.52-.4-.84-.28-1.08.2l-.32.8h-.88l-.28-8.64h.88c.6,4.76,2.88,7.4,5.64,7.4,1.88,0,2.88-1.28,2.88-3.32,0-1.8-.84-2.56-4.56-5.56-3.4-2.68-4.56-4.24-4.56-6.52,0-3.32,2.4-5.48,5.56-5.48,1.8,0,3.04.76,3.76,1.36.52.48.92.28,1.04-.2l.24-.88h.92l.16,7h-.88c-.48-3.12-2.24-5.6-4.92-5.6-1.6,0-2.64,1.08-2.64,2.68,0,1.68,1.04,2.56,3.84,4.76,3.6,2.84,5.32,4.56,5.32,7.6,0,3.96-2.68,5.84-5.76,5.84-2.04,0-3.52-.84-4.36-1.44"/>
      <path class="cls-1" d="M181.43,36.45c0,2.56.36,3.16,2.48,3.16v.96h-9.03v-.96c2.32,0,2.72-.6,2.72-3.16l-.04-22.99c0-2.56.08-3.08-2.32-1.84l-.4-.84,3.12-1.64,2.96-1.52.52.56v14.67h.12c1.8-2.48,3.64-4.2,6.36-4.2s4.36,2.04,4.36,5.8v11.99c0,2.56.36,3.16,2.68,3.16v.96h-8.95v-.96c2.08,0,2.44-.6,2.44-3.16v-11.79c0-2.2-.88-3.2-2.36-3.2-1.68,0-3.12,1.12-4.64,3.08v11.91Z"/>
      <path class="cls-1" d="M207.98,23.34c.76-2.48.8-3-1.84-3v-.96h6.92v.96c-1.84,0-2.6.52-3.36,3l-5.44,17.55h-2.16l-5.44-17.55c-.76-2.48-1.48-3-3.16-3v-.96h9.27v.96c-2.68,0-2.68.52-1.96,3l3.36,11.71h.24l3.56-11.71Z"/>
      <path class="cls-1" d="M215.26,12.3c0-1.44,1.08-2.48,2.6-2.48s2.56,1.04,2.56,2.48-1.08,2.44-2.56,2.44-2.6-1.04-2.6-2.44M220.09,36.45c0,2.56.4,3.16,2.84,3.16v.96h-9.51v-.96c2.44,0,2.84-.6,2.84-3.16v-12.31c0-2.68-.04-3.24-2.36-2.28l-.36-.92,5.88-2.36.68.6v17.27Z"/>
      <path class="cls-1" d="M231.05,36.45c0,2.56.36,3.16,2.8,3.16v.96h-9.51v-.96c2.44,0,2.84-.6,2.84-3.16V13.34c0-2.56,0-3.08-2.4-1.88l-.4-.88,6.08-2.96.6.56v28.26Z"/>
      <path class="cls-1" d="M237.44,12.3c0-1.44,1.08-2.48,2.6-2.48s2.56,1.04,2.56,2.48-1.08,2.44-2.56,2.44-2.6-1.04-2.6-2.44M242.28,36.45c0,2.56.4,3.16,2.84,3.16v.96h-9.51v-.96c2.44,0,2.84-.6,2.84-3.16v-12.31c0-2.68-.04-3.24-2.36-2.28l-.36-.92,5.88-2.36.68.6v17.27Z"/>
      <path class="cls-1" d="M106.35,7c-.6-.03-1.05.09-1.38.33-.36.26-.44.52-.71.89-.51.7-2.46.58-3.15.49-.22-.03-.75-.29-.9-2.28-.09-1.23-.05-.95-.03-1.47.03-.75.31-.83.66-.96,1.05-.37,1.25-1.25,1.22-2.15-.04-1.08-.94-1.79-2.06-1.85-1.27-.07-2.44.72-2.44,1.93,0,.84.33,1.74,1.07,2.09.32.15.79.38.81.92.04.89.04,1.92-.04,2.8-.04.43-.36.97-.67,1.01-.26.03-.53.02-.53.02-.36,0-.54-.15-.69-.47-.36-.75-1.09-1.27-2.02-1.23-1.12.05-1.81.75-1.87,1.83-.07,1.23.64,2.41,1.89,2.41.89,0,1.53-.58,2-1.24.35-.49.94-.42,1.25-.35.56.12.6.54.64.67.13.5.2,1.04.19,1.39-.02.48-.28.46-.6.61-.73.34-1.24,1.07-1.24,1.91,0,1.11.98,1.91,2.13,1.97,1.27.07,2.27-.77,2.27-1.98,0-.25-.05-.5-.13-.73,0-.01-.33-1.03-1.2-1.21-.36-.07-.4-.3-.4-.65,0,0,.02-.95.16-1.43.04-.13.3-.61.63-.66.73-.11,2.67-.24,3.04.4.42.7,1.11,1.24,2,1.24,1.26,0,2.25-1.36,2.02-2.57-.2-1.01-.8-1.61-1.91-1.67"/>
      <path class="cls-1" d="M113.69,31.09c0-5.08-4.42-10.66-13.36-10.66-7.72,0-11.01,3.85-11.01,7.66,0,5.08,4.42,10.62,13.45,10.62,7.62,0,10.91-3.85,10.91-7.63M85.51,29.67c0-6.24,5.8-11.35,16.03-11.35,9.38,0,15.95,4.83,15.95,11.14s-5.8,11.35-15.95,11.35c-9.47,0-16.03-4.83-16.03-11.15"/>
    </g>
  </g>
</svg>