<?xml version="1.0" encoding="UTF-8"?>
<svg id="Layer_2" data-name="Layer 2" xmlns="http://www.w3.org/2000/svg" viewBox="0 0 141.75 68.81">
  <g id="Layer_1-2" data-name="Layer 1">
    <path fill="#fff" d="M53.98,63.66c-7.64-4.39-14.09-9.62-22.19-14.15-9.37-5.8-22.02-9.54-28.57-18.92C-4.98,19.38,3.63,5.95,16.13,1.69c5.97-2.21,12.5-2.09,18.64-.58,11.34,2.39,20.35,10.06,30.79,14.8,5.39,2.43,11.19,4.03,16.86,4.87,12.49,2.04,25.85-.06,37.8-4.53,3.54-1.2,6.86-2.35,9.76-3.19,3.45-.93,6.84-2.03,9.85-1.38,7.49,1.73-8.98,27.6-12.26,31.85-9.7,13.78-18.73,19.58-35.3,23.08-12.86,3.05-27.16,3.64-38.13-2.87l-.15-.08Z"/>
  </g>
</svg>
