<?xml version="1.0" encoding="UTF-8"?>
<svg id="Layer_2" data-name="Layer 2" xmlns="http://www.w3.org/2000/svg" viewBox="0 0 116.91 184.72">
  <g id="Layer_1-2" data-name="Layer 1">
    <path fill="#fff" d="M102.16,182.09c-4.55-2.69-8.76-6.99-12.71-10.77-4.34-4.22-9.73-8.23-15.58-10.7-13.49-6-28.75-10.91-40.14-20.34-8.39-7.56-18.74-19.82-6.91-29.2,2.88-2.44,6.79-4.21,9.49-5.86,6.28-3.7,2.81-9.17-1.01-14.25-1.57-2.09-3.47-4.38-5.51-6.83-6.92-8.36-15.41-18.15-21.87-26.19C3.79,52.6.79,47.83.18,43.65c-1.3-7.87,4.61-12.74,12.34-8.68,7.51,3.89,13.15,10.65,20.48,16.16,5.16,3.91,10.78,7.25,15.98,11.1,7.43,5.35,14.61,11.5,22.22,16.52,7.36,5.1,16.62,8.96,21.92,16.3,8.92,13.2-2.22,31.88,8.82,54.63,3.33,7.99,9.75,15.65,13.61,22.98,2.43,4.67,1.73,9.65-2.99,11.6-2.84,1.12-6.61.09-10.29-2.11l-.11-.06ZM23.51.03v-.03s0,.03,0,.03h0Z"/>
  </g>
</svg>
