<?xml version="1.0" encoding="UTF-8"?>
<svg id="Layer_2" data-name="Layer 2" xmlns="http://www.w3.org/2000/svg" viewBox="0 0 127.36 39.02">
  <g id="Layer_1-2" data-name="Layer 1">
    <path fill="#fff" d="M52.27,38.86c-7.24-.76-15.3-1.27-22.25-2.09-3.53-.55-6.97-1.29-10.52-1.93-7.25-1.08-12.89-3.29-15.58-10.58C1.89,18.51-1.95,9.13,1.19,4.08,2.42,2.07,5.19,1.51,7.56,1.38c2.49-.15,4.98-.22,7.51-.4,6.06-.33,13.14-1.24,18.87-.91,2.88.14,5.47.44,8.43.61,9.33.57,17.39-1.54,24.27,5.18,4.48,3.8,9.28,9.26,15.64,8.29,3.31-.38,6.62-1.68,10.02-1.62,8.05.34,15.79,4.77,23.51,6.65,1.57.39,14.67,3.32,10.85,4.55-1.57.43-6.39.32-10.69-.36-4.4-.6-9.19-1.61-13.27.56-3.84,1.88-7.01,6.37-11.22,8.71-4.2,2.54-9.15,2.11-13.85,2.65-3.33.36-6.36,1.16-9.56,2-5.25,1.48-10.27,2-15.59,1.56h-.21Z"/>
  </g>
</svg>
