<?xml version="1.0" encoding="UTF-8"?>
<svg id="Layer_2" data-name="Layer 2" xmlns="http://www.w3.org/2000/svg" viewBox="0 0 603.25 152.03">
  <defs>
    <style>
      .cls-1 {
        fill: #fff;
      }
    </style>
  </defs>
  <g id="Layer_1-2" data-name="Layer 1">
    <g>
      <g>
        <path class="cls-1" d="M44.47,84.65h.2l20.07-59.1h24.4v2.25c-9.25,0-10.53,1.68-10.53,7.39v55.55c0,5.71,1.28,7.39,10.53,7.39v2.24h-32.07v-2.24c9.15,0,10.43-1.68,10.43-7.39V30.98h-.3l-24.01,71.26h-4.43L14.85,31.91h-.29v58.82c0,5.71,1.38,7.39,10.53,7.39v2.24H0v-2.24c9.15,0,10.43-1.68,10.43-7.39v-55.55c0-5.7-1.28-7.39-10.43-7.39v-2.25h24.5l19.97,59.1Z"/>
        <path class="cls-1" d="M102.47,64.17c0,7.86,2.66,17.39,9.84,17.39,5.12,0,7.38-4.68,7.38-10.94,0-8.14-2.95-17.86-9.74-17.86-5.41,0-7.48,5.52-7.48,11.41M130.81,105.69c0-3.65-2.66-4.49-9.64-4.49h-12.2c-2.75,0-5.12-.19-7.08-.65-3.34,2.52-5.71,5.33-5.71,8.32,0,3.93,3.84,7.95,14.17,7.95,12.5,0,20.46-5.89,20.46-11.13M121.46,92.88c10.23,0,14.86,2.81,14.86,9.91,0,10.38-11.81,19.64-28.33,19.64-10.53,0-19.68-3.65-19.68-11.32,0-5.33,4.13-8.88,10.33-11.5-4.03-1.5-5.81-4.11-5.81-7.3,0-4.3,3.15-7.39,7.58-10-4.82-3.09-7.58-8.42-7.58-14.87,0-10.47,7.08-18.24,18.4-18.24,3.74,0,6.99.84,9.74,2.43,3.94-2.15,8.17-3.08,11.22-3.08,2.85,0,3.64,1.31,3.64,2.8,0,1.78-1.18,3.18-3.54,3.18-3.74,0-6.39-1.87-9.25-1.5,3.94,3.18,6.2,8.04,6.2,14.12,0,10.66-7.08,18.05-18.1,18.05-3.05,0-5.8-.56-8.17-1.59-1.97,1.5-3.25,2.99-3.25,4.86,0,2.43.79,4.4,10.33,4.4h11.41Z"/>
        <path class="cls-1" d="M164.06,83.16v-11.03c-7.97,3.93-16.04,8.42-16.04,16.18,0,3.93,1.87,6.45,5.31,6.45,3.94,0,8.16-3.46,10.72-11.6M182.16,89.79c-.3,7.11-2.66,12.06-9.15,12.06-5.61,0-8.95-3.55-8.95-12.25v-1.68c-2.26,8.79-7.48,13.93-14.56,13.93s-10.92-4.96-10.92-11.03c0-11.78,14.27-17.02,25.48-21.79v-5.42c0-8.04-2.75-10.85-7.58-10.85-3.84,0-6.59,1.87-6.59,4.96,0,2.15,1.38,3.37,1.38,5.52,0,2.52-1.67,4.3-4.82,4.3-3.54,0-5.41-2.34-5.41-5.8,0-6.92,7.08-12.72,17.02-12.72s15.45,5.14,15.45,15.24v27.59c0,4.58.98,5.7,2.56,5.7,2.07,0,3.64-1.87,3.84-7.76h2.26Z"/>
        <path class="cls-1" d="M200.36,90.73c0,5.98.88,7.39,6.89,7.39v2.24h-23.42v-2.24c6,0,6.99-1.4,6.99-7.39v-54.05c0-5.98,0-7.2-5.9-4.4l-.98-2.06,14.95-6.92,1.48,1.31v66.11Z"/>
        <path class="cls-1" d="M355.71,90.73c0,5.98.88,7.39,6.89,7.39v2.24h-23.42v-2.24c6,0,6.99-1.4,6.99-7.39v-54.05c0-5.98,0-7.2-5.9-4.4l-.98-2.06,14.95-6.92,1.48,1.31v66.11Z"/>
        <path class="cls-1" d="M371.45,34.25c0-3.37,2.66-5.8,6.39-5.8s6.3,2.43,6.3,5.8-2.66,5.7-6.3,5.7-6.39-2.43-6.39-5.7M383.36,90.73c0,5.98.98,7.39,6.99,7.39v2.24h-23.42v-2.24c6,0,6.98-1.4,6.98-7.39v-28.8c0-6.27-.1-7.57-5.8-5.33l-.89-2.15,14.46-5.52,1.67,1.4v40.4Z"/>
        <path class="cls-1" d="M401.16,98.49c-1.28-.94-2.07-.65-2.66.47l-.79,1.87h-2.16l-.69-20.2h2.17c1.48,11.13,7.08,17.3,13.87,17.3,4.62,0,7.08-2.99,7.08-7.76,0-4.21-2.07-5.98-11.22-13-8.36-6.27-11.22-9.91-11.22-15.24,0-7.76,5.9-12.81,13.68-12.81,4.43,0,7.48,1.78,9.25,3.18,1.28,1.12,2.26.65,2.56-.47l.59-2.06h2.26l.39,16.36h-2.16c-1.18-7.29-5.51-13.09-12.1-13.09-3.94,0-6.49,2.52-6.49,6.27,0,3.93,2.56,5.98,9.44,11.13,8.86,6.64,13.08,10.66,13.08,17.77,0,9.26-6.59,13.65-14.17,13.65-5.02,0-8.66-1.96-10.72-3.37"/>
        <path class="cls-1" d="M446.52,90.73c0,5.98.89,7.39,6.1,7.39v2.24h-22.24v-2.24c5.71,0,6.69-1.4,6.69-7.39l-.1-53.77c0-5.98.2-7.2-5.71-4.3l-.98-1.96,7.67-3.83,7.28-3.55,1.28,1.31v34.32h.3c4.43-5.8,8.95-9.82,15.64-9.82s10.73,4.77,10.73,13.56v28.05c0,5.98.88,7.39,6.59,7.39v2.24h-22.04v-2.24c5.12,0,6-1.4,6-7.39v-27.59c0-5.14-2.16-7.48-5.8-7.48-4.13,0-7.67,2.62-11.41,7.2v27.87Z"/>
        <path class="cls-1" d="M511.85,60.06c1.87-5.8,1.97-7.01-4.53-7.01v-2.24h17.02v2.24c-4.53,0-6.4,1.22-8.26,7.01l-13.38,41.05h-5.31l-13.38-41.05c-1.87-5.8-3.64-7.01-7.77-7.01v-2.24h22.82v2.24c-6.59,0-6.59,1.22-4.82,7.01l8.26,27.4h.59l8.76-27.4Z"/>
        <path class="cls-1" d="M529.75,34.25c0-3.37,2.66-5.8,6.39-5.8s6.3,2.43,6.3,5.8-2.66,5.7-6.3,5.7-6.39-2.43-6.39-5.7M541.66,90.73c0,5.98.98,7.39,6.99,7.39v2.24h-23.42v-2.24c6,0,6.99-1.4,6.99-7.39v-28.8c0-6.27-.1-7.57-5.8-5.33l-.89-2.15,14.46-5.52,1.67,1.4v40.4Z"/>
        <path class="cls-1" d="M568.62,90.73c0,5.98.88,7.39,6.89,7.39v2.24h-23.42v-2.24c6,0,6.99-1.4,6.99-7.39v-54.05c0-5.98,0-7.2-5.9-4.4l-.98-2.06,14.95-6.92,1.48,1.31v66.11Z"/>
        <path class="cls-1" d="M584.36,34.25c0-3.37,2.66-5.8,6.39-5.8s6.3,2.43,6.3,5.8-2.66,5.7-6.3,5.7-6.39-2.43-6.39-5.7M596.26,90.73c0,5.98.98,7.39,6.99,7.39v2.24h-23.42v-2.24c6,0,6.99-1.4,6.99-7.39v-28.8c0-6.27-.1-7.57-5.8-5.33l-.89-2.15,14.46-5.52,1.67,1.4v40.4Z"/>
        <path class="cls-1" d="M264.81,18.49c-1.67-.08-2.92.24-3.84.88-1.01.69-1.24,1.37-1.99,2.36-1.4,1.85-6.85,1.53-8.76,1.29-.61-.08-2.08-.76-2.5-6.03-.26-3.26-.14-2.51-.07-3.89.1-1.99.85-2.2,1.82-2.53,2.91-.98,3.48-3.29,3.38-5.68-.12-2.86-2.6-4.72-5.72-4.88-3.53-.18-6.79,1.89-6.79,5.08,0,2.22.92,4.6,2.96,5.51.89.39,2.19,1,2.26,2.42.12,2.34.1,5.07-.11,7.4-.1,1.13-.99,2.56-1.87,2.67-.73.09-1.47.04-1.47.04-1,0-1.5-.41-1.92-1.24-1.01-1.99-3.02-3.35-5.6-3.24-3.1.13-5.03,1.98-5.2,4.82-.19,3.23,1.77,6.37,5.26,6.37,2.47,0,4.25-1.52,5.56-3.28.96-1.3,2.6-1.1,3.48-.91,1.55.32,1.67,1.42,1.77,1.77.36,1.31.56,2.75.52,3.67-.06,1.28-.77,1.21-1.66,1.61-2.04.91-3.44,2.83-3.44,5.05,0,2.94,2.71,5.05,5.91,5.21,3.53.17,6.31-2.03,6.31-5.22,0-.66-.13-1.32-.36-1.93-.01-.04-.91-2.73-3.34-3.21-.99-.19-1.12-.8-1.12-1.72,0,0,.05-2.5.45-3.76.11-.35.83-1.62,1.76-1.75,2.03-.3,7.41-.63,8.46,1.05,1.15,1.85,3.09,3.28,5.56,3.28,3.49,0,6.25-3.6,5.6-6.78-.55-2.67-2.22-4.26-5.31-4.41"/>
        <path class="cls-1" d="M279.79,78.19c0-11.89-10.88-24.92-32.88-24.92-18.99,0-27.09,9.01-27.09,17.93,0,11.89,10.88,24.84,33.11,24.84,18.76,0,26.86-9.01,26.86-17.84M210.44,74.88c0-14.59,14.27-26.54,39.46-26.54,23.09,0,39.25,11.29,39.25,26.07s-14.27,26.54-39.25,26.54c-23.3,0-39.46-11.3-39.46-26.07"/>
        <path class="cls-1" d="M321.28,49.12c-6.1,0-10.72,3.55-14.36,8.79h-.39V24.62l-1.38-1.31-7.28,3.55-7.58,3.55,1.08,1.96c5.71-2.71,5.51-1.5,5.51,4.58v46.72c0,.36.01.71.03,1.07v16.08h2.45l.21-1.37c.29-1.92,2.57-2.85,4.09-1.63,3.03,2.44,6.87,3.91,11.06,3.94.06,0,.11,0,.17,0,13.58,0,20.96-10.94,20.96-28.43,0-15.43-5.81-24.22-14.56-24.22ZM314.88,97.46c-.16,0-.32,0-.47-.01-4.46-.24-7.89-4.09-7.89-8.56v-26.4c2.46-3.83,5.81-6.92,9.74-6.92,5.61,0,9.25,6.17,9.25,19.36,0,14.21-3.74,22.54-10.63,22.54Z"/>
      </g>
      <g>
        <path class="cls-1" d="M151.76,149.17c-.1,0-.19-.04-.26-.11-.07-.07-.11-.17-.11-.27l.16-17.27c0-.21.17-.37.37-.37,0,0,7.48.07,7.48.07,3.45.03,5.93,2.3,5.9,5.39-.03,3.04-2.58,5.33-5.93,5.33l-5.25-.05-.07,6.93c0,.21-.17.37-.37.37,0,0-1.93-.02-1.93-.02ZM159.19,139.51c2.05,0,3.43-1.17,3.45-2.92.02-1.77-1.34-2.92-3.45-2.94l-4.98-.05-.06,5.86,5.03.05Z"/>
        <path class="cls-1" d="M179.84,149.44c-.14,0-.27-.08-.33-.2l-3.72-7.24-4.11-.04-.07,7.03c0,.21-.17.37-.37.37,0,0-1.93-.02-1.93-.02-.1,0-.19-.04-.26-.11-.07-.07-.11-.17-.11-.27l.16-17.27c0-.21.17-.37.37-.37,0,0,7.63.07,7.63.07,1.74.02,3.32.58,4.44,1.57,1.1.98,1.7,2.32,1.69,3.77-.02,2.54-1.86,4.55-4.62,5.12l3.64,7.06c.06.12.05.26-.01.37-.07.11-.19.18-.32.18,0,0-2.08-.02-2.08-.02ZM176.88,139.58c2.18,0,3.65-1.15,3.67-2.87,0-.8-.31-1.5-.93-2.02-.66-.56-1.61-.86-2.74-.87l-5.13-.05-.05,5.77,5.19.05Z"/>
        <path class="cls-1" d="M194.98,149.92c-5.37-.05-8.64-4.94-8.6-9.44.02-2.32.89-4.65,2.39-6.37,1.63-1.87,3.87-2.9,6.31-2.9h.08c5.37.05,8.64,4.94,8.6,9.44-.02,2.33-.89,4.65-2.39,6.37-1.63,1.87-3.87,2.9-6.31,2.9h-.08ZM195.11,133.69c-3.7,0-6.02,3.54-6.05,6.82-.03,3.31,2.24,6.9,5.98,6.94,0,0,.06,0,.06,0,2.92,0,5.96-2.55,6-6.82.02-1.72-.56-3.45-1.58-4.75-.78-.99-2.17-2.17-4.34-2.19h-.06Z"/>
        <path class="cls-1" d="M208.11,149.7c-.1,0-.19-.04-.26-.11-.07-.07-.11-.17-.11-.27l.16-17.27c0-.21.17-.37.37-.37,0,0,5.78.05,5.78.05,2.63.02,5.01.99,6.69,2.73,1.62,1.67,2.5,3.94,2.48,6.37-.05,5.17-3.93,8.92-9.23,8.92l-5.88-.06ZM213.68,147.31c4.01,0,6.84-2.67,6.88-6.49.02-1.79-.62-3.43-1.79-4.64-1.25-1.28-3-1.97-5.05-1.99l-3.18-.03-.12,13.12,3.27.03Z"/>
        <path class="cls-1" d="M234.36,150.3c-4.42-.04-7.25-3.04-7.21-7.65l.1-10.41c0-.21.17-.37.37-.37,0,0,1.93.02,1.93.02.1,0,.19.04.26.11.07.07.11.17.11.27l-.1,10.39c-.03,3.26,1.63,5.14,4.56,5.17h.06c2.89,0,4.56-1.85,4.6-5.08l.1-10.39c0-.21.17-.37.37-.37,0,0,1.93.02,1.93.02.1,0,.19.04.26.11.07.07.11.17.11.27l-.1,10.41c-.04,4.56-2.89,7.51-7.26,7.51h-.09Z"/>
        <path class="cls-1" d="M254.2,150.49c-2.47-.02-4.69-1.08-6.25-2.96-1.42-1.72-2.23-4.08-2.2-6.47.06-6.02,4.44-9.27,8.54-9.27h.09c3.72.04,6.53,2.1,7.51,5.52.03.11,0,.24-.06.33-.07.09-.18.15-.3.15,0,0-1.98-.02-1.98-.02-.15,0-.29-.09-.34-.23-.87-2.15-2.5-3.25-4.85-3.27h-.06c-2.89,0-5.83,2.34-5.87,6.82-.02,1.77.52,3.5,1.48,4.76.74.98,2.1,2.15,4.32,2.17h.07c2.31,0,3.94-1.07,4.84-3.18.06-.14.19-.23.34-.23,0,0,1.98.02,1.98.02.12,0,.23.06.3.15.07.1.09.22.06.33-1.04,3.37-3.85,5.38-7.52,5.38h-.1Z"/>
        <path class="cls-1" d="M270.51,150.3c-.1,0-.19-.04-.26-.11-.07-.07-.11-.17-.11-.27l.14-15.17-5.47-.05c-.1,0-.19-.04-.26-.11-.07-.07-.11-.17-.11-.27l.02-1.73c0-.21.17-.37.37-.37,0,0,13.62.13,13.62.13.1,0,.19.04.26.11.07.07.11.17.11.27l-.02,1.73c0,.21-.17.37-.37.37,0,0-5.48-.05-5.48-.05l-.14,15.17c0,.21-.17.37-.37.37,0,0-1.93-.02-1.93-.02Z"/>
        <path class="cls-1" d="M296.71,150.89c-5.37-.05-8.64-4.94-8.6-9.44.02-2.32.89-4.65,2.39-6.37,1.63-1.87,3.87-2.9,6.31-2.9h.08c5.37.05,8.64,4.94,8.6,9.44-.02,2.33-.89,4.65-2.39,6.37-1.63,1.87-3.87,2.9-6.31,2.9h-.08ZM296.83,134.66c-3.7,0-6.02,3.54-6.05,6.82-.03,3.31,2.24,6.9,5.98,6.94,0,0,.06,0,.06,0,2.92,0,5.96-2.55,6-6.82.04-4.31-2.98-6.91-5.93-6.94h-.06Z"/>
        <path class="cls-1" d="M309.84,150.67c-.1,0-.19-.04-.26-.11s-.11-.17-.11-.27l.16-17.27c0-.21.17-.37.37-.37,0,0,11.55.11,11.55.11.21,0,.37.17.37.38l-.02,1.73c0,.1-.04.19-.11.26-.07.07-.16.11-.26.11,0,0-9.25-.09-9.25-.09l-.05,5.3,8.9.08c.1,0,.19.04.26.11s.11.17.11.27l-.02,1.73c0,.21-.17.37-.37.37,0,0-8.91-.08-8.91-.08l-.07,7.4c0,.21-.17.37-.37.37,0,0-1.93-.02-1.93-.02Z"/>
        <path class="cls-1" d="M340.15,151.31c-2.46-.02-4.69-1.06-6.28-2.91-1.5-1.76-2.32-4.07-2.3-6.53.05-5.2,3.83-9.27,8.6-9.27h.08c3.85.04,6.66,2.03,7.71,5.47.03.11.01.24-.06.33-.07.09-.18.15-.3.15,0,0-2-.02-2-.02-.15,0-.28-.09-.34-.23-.9-2.12-2.59-3.21-5.03-3.23h-.06c-3.67,0-5.89,3.47-5.93,6.82-.02,1.83.53,3.54,1.55,4.82,1.09,1.37,2.6,2.1,4.37,2.12h.07c2.9,0,4.9-1.78,5.42-4.78l-6.55-.06c-.21,0-.37-.17-.37-.38l.02-1.73c0-.21.17-.37.37-.37,0,0,8.91.08,8.91.08.1,0,.19.04.26.11s.11.17.11.27v.86c-.05,4.21-2.86,8.46-8.17,8.46h-.09Z"/>
        <path class="cls-1" d="M352.89,151.08c-.21,0-.37-.17-.37-.38l.16-17.27c0-.1.04-.19.11-.26.07-.07.16-.11.26-.11,0,0,11.94.11,11.94.11.21,0,.37.17.37.38l-.02,1.73c0,.1-.04.19-.11.26-.07.07-.16.11-.26.11,0,0-9.65-.09-9.65-.09l-.05,5.05,9.3.09c.21,0,.37.17.37.38l-.02,1.73c0,.1-.04.19-.11.26-.07.07-.16.11-.26.11,0,0-9.3-.09-9.3-.09l-.05,5.54,9.84.09c.1,0,.19.04.26.11s.11.17.11.27l-.02,1.73c0,.21-.17.37-.37.37,0,0-12.14-.12-12.14-.12Z"/>
        <path class="cls-1" d="M377.36,151.66c-2.46-.02-4.7-1.09-6.31-3-1.48-1.75-2.31-4.1-2.29-6.44.02-2.32.89-4.65,2.39-6.37,1.63-1.87,3.87-2.9,6.31-2.9h.08c5.37.05,8.64,4.94,8.6,9.44-.02,2.33-.89,4.65-2.39,6.37-1.63,1.87-3.87,2.9-6.31,2.9h-.08ZM377.48,135.42c-3.7,0-6.02,3.54-6.05,6.82-.03,3.31,2.24,6.9,5.98,6.94h.06c2.92,0,5.96-2.55,6-6.82.04-4.31-2.98-6.91-5.93-6.94h-.06Z"/>
        <path class="cls-1" d="M401.02,151.54c-.14,0-.27-.08-.33-.2l-3.72-7.24-4.11-.04-.07,7.03c0,.21-.17.37-.37.37,0,0-1.93-.02-1.93-.02-.1,0-.19-.04-.26-.11s-.11-.17-.11-.27l.16-17.27c0-.21.17-.37.37-.37,0,0,7.63.07,7.63.07,3.58.03,6.15,2.28,6.12,5.34-.02,2.54-1.86,4.55-4.62,5.12l3.64,7.06c.06.12.05.26-.01.37-.07.11-.19.18-.32.18,0,0-2.08-.02-2.08-.02ZM398.07,141.68c2.18,0,3.65-1.15,3.66-2.87.02-1.71-1.46-2.87-3.67-2.89l-5.13-.05-.05,5.77,5.19.05Z"/>
        <path class="cls-1" d="M416.15,152.03c-2.46-.02-4.69-1.06-6.28-2.91-1.5-1.76-2.32-4.07-2.3-6.53.05-5.2,3.83-9.27,8.6-9.27h.08c3.85.04,6.66,2.03,7.71,5.47.03.11.01.24-.06.33-.07.09-.18.15-.3.15,0,0-2-.02-2-.02-.15,0-.28-.09-.34-.23-.9-2.12-2.59-3.21-5.03-3.23h-.06c-3.67,0-5.89,3.47-5.93,6.82-.02,1.83.53,3.54,1.55,4.82,1.09,1.37,2.6,2.1,4.37,2.12h.07c2.9,0,4.9-1.78,5.42-4.78l-6.55-.06c-.21,0-.37-.17-.37-.38l.02-1.73c0-.21.17-.37.37-.37,0,0,8.91.08,8.91.08.21,0,.37.17.37.38v.86c-.05,4.21-2.86,8.46-8.17,8.46h-.09Z"/>
        <path class="cls-1" d="M429,151.81c-.1,0-.19-.04-.26-.11s-.11-.17-.11-.27l.16-17.27c0-.21.17-.37.37-.37,0,0,1.93.02,1.93.02.1,0,.19.04.26.11s.11.17.11.27l-.16,17.27c0,.21-.17.37-.37.37,0,0-1.93-.02-1.93-.02Z"/>
        <path class="cls-1" d="M449.48,152c-.15,0-.29-.1-.35-.24l-1.62-4.32-7.97-.08-1.7,4.28c-.06.14-.19.24-.35.24,0,0-2-.02-2-.02-.12,0-.24-.06-.31-.17s-.08-.23-.03-.35l7.12-17.2c.06-.14.19-.23.35-.23,0,0,2.08.02,2.08.02.15,0,.29.1.34.24l6.79,17.34c.05.12.03.25-.04.35-.07.1-.18.16-.31.16,0,0-2-.02-2-.02ZM446.58,144.96l-2.96-7.82-3.1,7.77,6.06.06Z"/>
      </g>
    </g>
  </g>
</svg>