<?xml version="1.0" encoding="UTF-8"?>
<svg id="Layer_2" data-name="Layer 2" xmlns="http://www.w3.org/2000/svg" viewBox="0 0 125.02 52.36">
  <g id="Layer_1-2" data-name="Layer 1">
    <path fill="#fff" d="M38.72,45.64c-4.9-3.9-9.79-8.13-15.37-10.93-5.38-2.84-11.51-4.32-16.55-6.37-12.4-5.53-5.84-11.67,3.65-12.82,5.42-.71,11.1.56,17.34,1.28,3.27.42,6.5.87,9.78,1.47,8.62,1.47,16.34,4.26,23.84,2.16,17.7-6.13,13.93-32.22,48.87-14.18,2.54,1.36,4.93,2.88,7.06,4.81,5.06,4.63,8.17,12.07,7.6,19.01-.74,7.56-7.23,13.25-15.03,13.35-7.78.43-15.8-1.01-23.5-.3-18.82,1.14-29.52,18.38-47.53,2.65l-.17-.13Z"/>
  </g>
</svg>
