<?xml version="1.0" encoding="UTF-8"?>
<svg id="Layer_2" data-name="Layer 2" xmlns="http://www.w3.org/2000/svg" viewBox="0 0 69 76">
  <g id="Layer_1-2" data-name="Layer 1">
    <path d="M59.82,32.7c-2.82-.14-4.93.42-6.48,1.54-1.69,1.21-2.07,2.43-3.34,4.16-2.4,3.27-11.56,2.71-14.8,2.29-1.03-.14-3.52-1.35-4.23-10.64-.42-5.74-.23-4.44-.14-6.86.14-3.5,1.46-3.88,3.1-4.48,4.93-1.73,5.87-5.84,5.73-10.04C39.48,3.62,35.25.3,29.99.02c-5.97-.33-11.46,3.36-11.46,9.01,0,3.92,1.55,8.12,5.03,9.76,1.5.7,3.71,1.77,3.81,4.3.19,4.16.19,8.96-.19,13.07-.19,2.01-1.69,4.53-3.15,4.72-1.22.14-2.49.09-2.49.09-1.69,0-2.54-.7-3.24-2.19-1.69-3.5-5.12-5.93-9.49-5.74C3.55,33.26.3,36.53.02,41.57c-.33,5.74,3.01,11.25,8.88,11.25,4.18,0,7.19-2.71,9.4-5.79,1.64-2.29,4.42-1.96,5.87-1.63,2.63.56,2.82,2.52,3.01,3.13.61,2.33.94,4.86.89,6.49-.09,2.24-1.32,2.15-2.82,2.85-3.43,1.59-5.83,5-5.83,8.92,0,5.18,4.6,8.92,10.01,9.2,5.97.33,10.66-3.6,10.66-9.24,0-1.17-.23-2.33-.61-3.41,0-.05-1.55-4.81-5.64-5.65-1.69-.33-1.88-1.4-1.88-3.03,0,0,.09-4.44.75-6.68.19-.61,1.41-2.85,2.96-3.08,3.43-.51,12.54-1.12,14.28,1.87,1.97,3.27,5.21,5.79,9.4,5.79,5.92,0,10.57-6.35,9.49-12-.94-4.72-3.76-7.52-8.97-7.8"/>
  </g>
</svg>